<svg width="50" height="65" viewBox="0 0 50 65" fill="none" xmlns="http://www.w3.org/2000/svg">
<rect x="0.5" y="0.5" width="49" height="64" stroke="black"/>
<path d="M49.5 32.5C49.5 46.3165 38.5217 57.5 25 57.5C11.4783 57.5 0.5 46.3165 0.5 32.5C0.5 18.6835 11.4783 7.5 25 7.5C38.5217 7.5 49.5 18.6835 49.5 32.5Z" stroke="black"/>
<path d="M42.6368 32.5C42.6368 42.4505 34.7311 50.5 24.9996 50.5C15.2681 50.5 7.3623 42.4505 7.3623 32.5C7.3623 22.5495 15.2681 14.5 24.9996 14.5C34.7311 14.5 42.6368 22.5495 42.6368 32.5Z" stroke="black"/>
<path d="M35.7746 32.5C35.7746 38.5845 30.9414 43.5 25.0001 43.5C19.0588 43.5 14.2256 38.5845 14.2256 32.5C14.2256 26.4155 19.0588 21.5 25.0001 21.5C30.9414 21.5 35.7746 26.4155 35.7746 32.5Z" stroke="black"/>
<path d="M28.9114 32.5C28.9114 34.7185 27.1508 36.5 24.9997 36.5C22.8485 36.5 21.0879 34.7185 21.0879 32.5C21.0879 30.2815 22.8485 28.5 24.9997 28.5C27.1508 28.5 28.9114 30.2815 28.9114 32.5Z" stroke="black"/>
</svg>
